
<svg width="485.11" height="428.747" fill="none" xmlns="http://www.w3.org/2000/svg"><path d="M385.61 172.49c-12.48-3.97-25.49-4.91-38.42-6.3 4.12-.91 8.58-2.12 12.78-2.59 3.86-.43 6.16 1.17 9.79 2.43 6.49 2.27 13.74 5.02 19.38 7.65-1.17-.41-2.35-.81-3.53-1.19Zm-17.78 4.97c-13.69-2.56-27.7-3.12-41.37-5.79 3.39-1.04 5.31-1.94 8.91-1.6 5.35.51 10.77 1.61 16 2.77 7.6 1.69 15.26 3.52 22.66 5.92-2.06-.48-4.12-.91-6.2-1.3Zm.66 2.67c-.93.38-4.22-.91-5.28-1.13 1.02.19 4.68 1.37 5.28 1.13Zm-27.26-.28c-10.71-.67-21.55-1.01-32.28-.95 1.92-.72 3.76-1.63 5.64-2.47 5.13-2.3 6.03-1.93 11.15-.42 6.61 1.95 13.38 3.06 20.16 4.19-1.56-.14-3.11-.26-4.67-.35Zm-12.5 6.18c-14.79 1.12-29.38 2.91-44.14 4.56 3.15-1.27 6.18-2.89 9.19-4.45 4.65-2.42 8.22-2.08 13.4-2.08 5.5 0 10.91.64 16.38 1.27 1.35.15 6.64.58 5.17.7Zm-22.79-11.24c7.9-7.67 16.96-14.81 26.24-20.79 5.89-3.79 12.3-8.07 19.22-4.78-11.45.47-26.41 10.86-33.18 19.76-.33.42-.82.71-1.16 1.12-1.28 1.55.11 1.71-.76 2.66-.1.12-4.72 2-4.11 1.75-3.14 1.3-6.35 2.38-9.49 3.66 1.06-1.15 2.14-2.27 3.24-3.38Zm44.05-18.37c-7.77 6.5-16.2 9.96-25.56 13.22 8.55-5.5 17.12-10 26.51-13.94-.31.24-.63.48-.95.72Zm9.67 2.23c1.62-.52 2.35-.39 2.71 1.54-4.19-.16-6.18.41-10.13 1.37 2.4-1.14 4.88-2.12 7.42-2.91Zm5.14 1.05c-.29-.53-.42-1.54-.62-2.06 3.11-.05 5.75.61 8.39 2.24-.87.01-7.55.78-7.77-.19v.01Zm-126.03 72.15c22.72-2.81 44.51-3.54 67.33-1.32-17.19 1.51-34.45 4.96-51.37 8.32-13.58 2.69-27.36 4.14-40.98 6.58 2.53-2.63 4.89-5.41 7.46-8 4.46-4.5 11.15-4.78 17.56-5.58Zm78.11 6.69c4.11-.42 8.2-.93 12.28-1.53 4.43-.65 11.51-3.58 15.97-2.7-24.37 7.24-50.69 10.57-75.74 14.65-10.41 1.69-21.01 4.17-31.09 7.31-14.57 4.54-30.99 4.51-44.89 10.88 4.25-4.45 8.91-10.82 13.75-14.44 3.52-2.64 9.36-2.86 13.54-3.41 6.9-.91 13.82-1.62 20.74-2.36 25.16-2.71 50.27-5.77 75.44-8.4Zm-127.41 24.12a186.49 186.49 0 0 0-5.96 6.9c3.51-16.46 3.35-33.82 5.33-50.53 1.11-9.45 2.16-19 3.67-28.39 1.32-8.29 1.68-19.58 6.12-26.74 3.32 3.08 5.77 6.35 5.11 10.83-.85 5.76-3.33 11.29-4.48 17-1.3 6.42-2.17 12.95-2.97 19.45-1.24 9.99-1.52 20.16-1 30.21.15 2.82.33 5.65.55 8.46.09 1.24.73 3.33.46 4.48-.66 2.83-4.69 5.96-6.83 8.33Zm24.51-68.53c1.94-9.25 3.13-19.99 7.18-28.66 2.25-4.82 4.41-6.54 7.77-1.33 2.4 3.71-1.37 11.86-2.55 16.53-3.37 13.25-5.15 26.84-7.38 40.3-.58 3.53-.75 7.02-1.13 10.56-.31 2.93-.23 2.75-1.91 4.96-1.09 1.42-2.8 2.63-4.11 3.88-3.43 3.28-6.9 6.51-10.3 9.83 5.17-18.47 8.49-37.32 12.43-56.07ZM468 236.14c-3.13-4.16-7.1-7.91-11.16-11.13-5.62-4.46-12.51-7.07-18.12-11.35-4.73-3.61-8.63-8.42-13.46-12.07-7.66-5.81-15.55-10.63-24.53-14.12 11.43 3.9 22.4 8.6 31.56 16.7.77.68 7.48 9.27 8.87 8.45.95-.55-3.07-6.77-3.91-8.22-6.19-10.64-18.9-17.46-28.93-24.3-11.34-7.72-23.72-12.05-36.64-16.32 11.74.65 21.62 3.66 31.45 10.26 4.84 3.25 9.31 7.04 14.3 10.05 4.42 2.68 8.66 5.14 12.47 8.72 4.27 4.02 7.7 8.4 10.54 13.54 1.06 1.93 6.27 13.62 6.41 6.2.06-3.66-4.56-8.88-6.43-11.52-3.15-4.46-6.81-8.47-10.64-12.35-6.52-6.6-12.74-13.44-20.47-18.64-4.4-2.96-9-5.31-14.03-7-3.89-1.31-7.88-2.25-11.96-2.71-3.87-.44-4.24-.39-7.32-2.39-2.65-1.72-4.91-3.56-7.87-4.79-3.02-1.25-5.59-1.43-7.84-3.14-2.65-2.02-3.68-4.39-7.1-5.65-3.14-1.16-6.36-.91-9.64-.64-10.84.86-21.86 3.61-30.83 10.03-7.93 5.67-13.33 14.72-17.16 23.54-2.12 4.87-.68 4.69-6.36 7.49-5.98 2.94-11.92 5.83-17.74 9.12 9.59-11.92 17.92-25.11 28.43-36.28 5.62-5.97 11.14-12.03 16.76-17.99 1.66-1.76 14.76-14.41 7.4-13.96-1.7.1-4.26 2.37-5.83 3.12-3.12 1.5-6.22 2.83-9.1 4.78-5 3.4-9.08 7.62-13.17 12.01-10.6 11.38-20.14 23.54-25.03 38.48-1.16 3.53-1.58 7.51-3.4 10.76-1.27 2.29-2.77 3.08-5.37 4.77-4.45 2.89-8.77 5.86-12.98 9.1 10.77-15.96 17.72-33.81 26.21-50.99 10.91-22.09 15.91-46.88 25.09-69.7 1.78-4.43 3.95-9.3 6.94-13.07.91-1.14 3.78-2.86 4.03-4.3.67-3.82-1.91-2.79-3.81-1.7-4.64 2.69-9.15 8.74-12.33 12.83-4.62 5.94-9.3 12.38-13.3 18.77-13.78 22.04-22.92 47.05-30.51 71.79-3.58 11.64-7.26 23.46-9.02 35.53-.85 5.82.12 5.98-4.75 9.97-5.08 4.16-9.94 8.58-14.98 12.79 4.59-9.44 7.33-21.14 10.65-31.15 3.47-10.49 7.42-20.82 10.95-31.29 5.74-17.04 10.03-34.49 14.17-51.97 2.19-9.3 4.25-18.6 6.13-27.96 2.42-12.03 4.88-25.93 10.27-37.02.8-1.65 4.07-9.32-.66-6.68-2.16 1.21-4.73 9.11-5.84 11.24-6.26 12.1-11.54 24.38-16.25 37.16-8.36 22.66-14.22 45.87-20.84 69.04-3.31-4.52-10.19-9.5-16.13-7.57-5.33 1.72-7.95 9.32-9.63 14.07-.19-3.29-4.23-9.42-7.37-9.63-1.79-.12-4.87 1.57-6.37 2.28-3.7 1.75-7.9 3.96-10.2 7.4-4.73 7.06-3.83 18.14-4.67 26.3-2.5 24.37-2.06 47.89.7 72.16.63 5.55 1.39 8.12-1.77 12.5-3.61 5-7.09 9.92-10.64 14.61 1.14-2.17.11-8.82.1-11.14-.04-6.21.02-12.36.35-18.57.66-12.78-.03-25.99-.67-38.77-1.33-26.35-1.21-52.36-.32-78.71.19-5.55.06-11.06.03-16.61-.02-2.29.74-7.9-2.9-6.56-1.05.39-1.83 4.49-2.14 5.52-2.83 9.58-3.72 19.94-5.02 29.78-1.18 8.94-2.26 17.91-3 26.9-1.44 17.27-.96 34.04-.88 51.34.08 14.25 1.62 29.74 4.26 42.89 1.23 6.16 3.38 12.83 4 19.04.38 3.74-1.81 5.13-4.32 8.53-2.55 3.43-5.06 6.9-7.49 10.42.24-5.4-1.3-10.97-1.66-16.37-.3-4.51-.59-8.99-1-13.49-.32-3.55-.62-7.1-.94-10.65-1.62-18.27-3.2-36.5-6.19-54.6-4.59-27.79-9.61-56.36-9.42-84.64.04-5.39.21-10.79.27-16.18.05-4.07-.32-8.11-.35-12.17-.01-2.07.93-6.08.24-8.14-2-5.98-3.73.7-3.78 3.44-.03 1.45-.12 2.89-.14 4.33-.14 9.08-.92 18.04-1.37 27.1-.64 13.08-.06 26.09.37 39.16.47 14.24.12 28.57 1.65 42.76 1.97 18.28 5.93 36.46 8.41 54.69 1.08 7.95 2.58 15.8 3.4 23.78.76 7.45 3.41 14.78 5.02 21.67l-.01-.53c.62 2.93 1.6 4.4.72 7.08-.63 1.89-2.35 3.87-3.38 5.61-2.2 3.69-4.31 7.42-6.42 11.15 1.87-9.48-.67-21.45-2.67-30.77-2.22-10.32-4.93-20.88-8.09-30.94-2.46-7.82-4.5-15.5-5.24-23.65-.99-10.84-3.94-21.26-5.53-32.01-1.49-10.14-4.01-20.18-6.16-30.22-.48-2.26-2.64-13.07-6.15-8.19-.87 1.2.19 4.4.33 5.64.33 3.08.54 6.11.68 9.2.9 19.63 5.01 39.56 8.23 58.9 2.06 12.36 4.24 24.76 7.25 36.93 2.34 9.47 3.61 19.31 6.21 28.64 1.24 4.48 2.51 9.06 4.5 13.27 1.74 3.66 3.48 4.68 2.87 8.62-.87 5.64-5.67 11.49-7.84 16.95-1.77 4.46-3.58 8.93-5.27 13.43-2.35 6.3-4.56 12.7-6.63 19.1-1.2 3.7-3.53 8.48-3.75 12.25-.33 5.72 2.91 4.08 4.61.26 1.14-2.58 2.05-5.35 3.13-7.97 7.9-19.19 15.13-39.77 26.92-56.99 4.91-7.19 18.51-8.92 26.48-11.43 19.19-6.04 39.95-6.83 59.86-9.04 16.05-1.77 31.84-3.41 47.56-7.36 2.3-.57 44.19-12.91 43.14-15.06.59 1.21-45.83 11.54-49.55 11.85-11.66.94-23.28 1.2-34.96 1.69-29.22 1.24-57.97 1.94-84.52 15.75 3.35-5.27 7.36-15.22 13.24-17.26 11.34-3.94 23.28-6.48 34.7-10.32 11.88-3.99 24.07-6.66 36.01-10.35 11.93-3.69 23.83-7.51 35.94-10.62 12.17-3.11 24.74-6.37 37.39-5.96 4.87.15 9.75.58 14.6 1.04 1.83.17 16.4 2.87 8.52-.48-5.1-2.17-11.78-2.33-17.25-3.13-6.26-.91-12.27-1.72-18.61-1.67-13.79.11-27.65 3.34-40.98 6.54-15.96 3.83-32.57 7.63-47.8 13.79-13.96 5.64-27.99 11.06-41.95 16.64 2.53-3.89 5.23-7.66 7.88-11.48 1.28-1.85 2.63-4.87 4.45-6.13 2.78-1.94 8.63-2.44 11.86-3.52 12.99-4.32 26.04-9.39 39.35-12.6 21.4-5.17 43.32-8.38 64.85-12.98 12.57-2.68 25.88-5.04 38.73-4.81 4.83.08 9.67-.09 14.42.93 1.68.36 3.79 1.29 5.52 1.48 5.18.58 1.34-1.9-1.8-2.99-24.88-8.62-52.3-1.73-77.38 1.78-16.59 2.31-32.96 4.67-48.79 10.38-14.6 5.25-28.54 12.26-43.38 16.88 3.89-5.53 7.36-11.25 13.57-14.29 6.87-3.36 14.12-4.82 21.62-6.1 15.6-2.65 31.09-6.06 46.73-8.37 14.38-2.12 28.73-4.01 42.98-6.91 13.87-2.82 27.66-4.47 40.9-9.81 4.2-1.69 9.28-4.63 13.76-4.88 5.8-.33 12.82 1.41 18.51 2.27 13.86 2.09 28.24 4.25 41.05 10.12 12.57 5.75 21.1 14.8 30.72 24.26 3.03 2.98 6.02 6.01 9.04 9.01.67.66 4.69 5.67 5.52 5.74 5.12.38-4.55-9.78-6.21-11.86-11.53-14.38-24-26.37-40.96-34.21-14.45-6.68-29.56-11.02-45.32-13.24.04-2.85 11.65-2.99 11.97-5.94.42-3.94-7.71 0-9.32.48-3.06.92-6.03 2.07-9.1 2.94-7.06 1.99-14.86-.46-22.03-1.38-8.64-1.11-17.4-1.83-26.09-2.36-28.77-1.73-56.37-.78-84.32 6.93 5.02-4.39 10.25-8.56 15.55-12.61 2.06-1.57 3.63-3.01 5.97-3.75 3.95-1.25 8.64-.69 12.75-1.09 16.28-1.59 32.47-3.37 48.84-3.87 26.92-.83 55 4 80.53 12.56 12.46 4.18 24.68 8.24 35.5 15.93 2.5 1.78 4.73 3.82 7.01 5.88.94.85 6.68 7.02 6.97 6.99 2.5-.26-9.06-13.05-10.74-14.68-22.56-21.93-51.83-26.92-81.73-31.32-31.26-4.61-62.63-2.16-93.43 4.79 6.15-3.84 12.19-10.41 19.1-12.64 5.24-1.7 11.9-1.38 17.2-1.92 15.39-1.58 31.52 1.1 46.94 2.19 17.42 1.24 34.35 3.47 51.19 8.11 8.62 2.38 17.01 4.89 25.42 7.97 6.66 2.45 12.1 3.95 17.49 8.42 2.18 1.82 8.65 6.65 12.15 9.93 1.43 1.34 2.9 4.17 4.52 4.84 6.01 2.51-1.97-7.28-3.28-8.98 4.78 2.85 9.24 6.16 13.48 9.68.84.7 1.65 1.23 2.5 1.87.99.75 1.52 2.94 3.22 2.21 1.39-.6.9-2.03.24-2.94Z" fill="#012A32" fill-rule="evenodd"/></svg>