
<svg width="312.586" height="286.223" fill="none" xmlns="http://www.w3.org/2000/svg"><path d="M236.02 135.99c2.71-.02 5.49 2.68 7.44 4.26-5.08-3.4-13.13-3.27-18.96-4.09-5.67-.8-11.3-2-16.78-3.72-.12-.03-12.25-4.01-8.14-6.29 11.37-6.38 25.45 10.41 36.44 9.84Zm-78.91-52.32c2.14 5.24 11.6 30.91 2.4 32.74-7.32 1.46-13.59-14.16-13.99-19.38-.65-8.69-.25-17.36-1.46-26.04 5.09 3.9 10.51 6.39 13.05 12.68ZM67.73 242.4c-3.51 4.33-7.05 8.67-10.87 12.73 4.01-4.97 7.83-9.96 12.34-14.5l-1.47 1.77ZM303.57 42.24c-1.92-2.48-9.44.55-11.6 1.04-5.9 1.33-12.29 2.52-17.69.18-4.63-1.16 2.86-9.19 4.04-12.27.82-2.15 2.54-7.61 1.11-9.81-3.06-4.7-9.46.81-12.64 2.99-4.67 3.18-6.6 5.24-5.79-.6.87-6.28 7.45-16.86.79-22.43-5.67-4.74-14.49 4.26-17.92 7.88-6.46 6.8-9.46 14.5-10.84 23.67-.32 2.13-2.8 14.77-4.97 12.54-4.33-5.57-.9-13.74-4.32-19.74-1.95-3.41-4.63-5.1-6.26-8.94-1.61-3.79-3.25-10.58-8.47-10.99-3.31-.26-5.5 2.48-6.05 5.22-1.74 6.41-.43 12.18-.54 18.67-.09 4.75-3.21 8.33-2.05 13.22 1.87 7.45 4.32 15.26 5.58 23.02.39 2.43 1.74 13.51-3.03 11.34-2.68-1.22-2.4-11.58-2.58-13.4-.44-4.35-.38-8.69-2.99-12.46-1.51-2.16-4-2.99-5.15-4.69-3.43-5.01-3.2-13.51-6.02-19.02-2.54-4.94-9.26-16.92-15.16-18.1-8.08-1.6-5.04 9.4-4.51 14.22.58 5.34 1.48 10.21 1 15.42-.41 4.6-.08 8.33 1.68 12.8 3.26 8.25 8.17 15.37 12.29 22.89-.01-.03-.02-.06-.04-.08 2.32 4.41 4.24 9.89 4.03 14.99-.37 8.56-3.33 4.2-5.93-1.62-3.92-8.78-6.48-18.17-10.35-26.95-1.39-3.13-3.04-6.3-5.92-8.34-1.93-1.37-4.32-1.03-5.82-1.86-5.22-2.88-24.43-35.44-32.5-25.73-4.35 5.24 6.46 16.44 8.74 20.36 3.65 6.26 7.51 10.58 7.14 18.01-2.12-1.96-5.03-.94-6.96-2.5-2.3-1.86-2.95-5.8-4.03-8.38-2.96-7.09-6.44-14.07-11.08-20.18-14.14-18.66-11.76 9.55-10.36 18.86.27 1.79.59 4.07.86 6.11.73 5.33-.51 6.2-1.28 10.92-1.29 8.02 8.17 18.61 13.06 24.36 1.5 1.77 24.75 30.58 14.56 30.34-5.14-.12-13.8-14.73-16.2-19.22-3.69-6.9-6.22-20.68-13.88-24.26-2.41-1.12-4.39.06-6.62-.82-5.21-2.07-8.75-10.22-12.51-14.04-7.67-7.76-17.09-6.68-10.67 5.91 2.54 4.99 3.8 8.31 5.36 13.74 1.77 6.19 7.36 9.38 9.93 14.8 2.13 4.48-1.18 2.08-.99 7.42.16 4.42 7.03 9.27 10.27 11.73 4.49 3.42 24.73 14.89 20.76 21.81-3.62 6.3-15.42-3.2-18.57-6.1-7.9-7.23-11.04-17-15.48-26.37-2.17-4.56-4.64-10.11-8.18-13.8-3.11-3.24-6.64-3.68-10.49-5.36-4.48-1.95-24.22-12.33-23.31.22.61 8.43 12.36 12.52 13.83 20.57-5.29-2.36-16.35-13.06-22.65-7.43-6.08 5.43 5.98 17.16 9.66 21.59 2.25 2.72 17.69 14.96 17.43 19.54-.27 4.79-5.81 3.08-9.01 2.44-5.48-1.08-54.5-13.15-54.28-3.16.16 7.75 19.01 5.12 21.45 9.52.9 1.61-1.05 2.4-1.4 4.12-1.26 6.32.83 8.84 7.47 9.54-6.3 15.09 14.55 7.08 21.56 4.67 4.78-1.64 25.1-9.07 26.5 1.13.48 3.43-5.26 8.83-6.24 12.18-1.88 6.47 2.87 10.44 9.11 8.25 4.29-1.5 8.19-5.3 10.95-8.83 1.58-2.02 4.38-8.67 7.02-9.13-.26 10.95 6.12 5.29 11.95.58 4.36-3.52 15.21-13.09 21.69-9.28-5.07 7.04-12 12.64-17.54 19.29-6.06 7.28-12.37 14.08-19.37 20.96-13.26 13.04-26.55 27.27-38.22 41.69-5.71 7.05-11.89 13.77-18.01 20.47-2.21 2.41-16.07 13.25-11.21 17.65 6.57 5.95 17.98-16.56 22.67-19.17 22.3-25.36 46.07-49.45 67.69-75.3-.89 2.92.08 11.14 4.49 11-1.04 2.4-4.15 6.05-3.43 8.8 1.61 6.07 4.06.6 6.34.95 3.89.61.7 7.63-.02 10.49-3.36 13.32-4 27.89-4.86 41.59-.47 7.52 5.85 28.35 16.53 19.43 5.33-4.44 5.88-15.58 6.22-21.81.21-3.93-1.58-14.85 1.15-18.25 4.51 2.39 9.93 13.12 12.83 16.97 6.13 8.14 11.5 13.31 22.15 14 25.3 1.66-5.34-27.08-2.29-29.01 2.15-1.35 16.97 11.15 18.93 12.64 4.34 3.31 17.57 11.38 22.43 4.61 4.07-5.68-6.35-15.19-9.44-18.85-2.59-3.06-4.53-7.26-7.78-10.35-2.67-2.54-6.24-3.99-8.89-6.41-2.75-2.52-2.91-6.14-5.98-9.02-3.44-3.23-8.11-5.93-11.9-8.88-6.33-4.92-15.29-11.31-16.03-20.24 14.46 1.79 24.34 17.54 34.21 26.68 4.94 4.58 10.75 10.45 17.9 8.89 2.87-.63-.2-1.19 3.64-1.45.87-.06 2.04.44 2.87.64 6 1.41 11.74 3.6 17.68 5.16 3.69.97 15.52 5.29 18.82 1.74 6-6.43-19.88-22.6-24.45-26.18-3.46-2.71-7.63-5.03-10.89-7.84-3-2.58-4.01-6.03-8.04-7.93-5.22-2.46-11.29-3.3-16.73-5.15-7.32-2.48-13.42-6.13-19.51-10.81-2.52-1.94-8.65-6.12-7.33-9.63 2.14-5.64 11.74 1.57 14.47 3.11 8.06 4.58 15.6 11.87 25.57 14.88 10.31 3.11 15.6 13.25 25.1 17.78 3.43 1.64 5.36 1.79 8.98 1.13 4.02-.74 5.93-1.21 10.65 0 4.29 1.09 24.96 7.8 23.39-1.84-.51-3.13-5.05-4.42-7.35-5.7-5.06-2.82-9.98-5.93-15.11-8.62-3.26-1.71-7.4-2.89-10.06-5.55-2.53-2.51-3.1-5.08-6.74-6.71-4.9-2.21-12.26-1.86-16.55-4.84-4.1-2.85-7.33-6.94-12.02-9.56-3.73-2.09-24.86-9.92-24.28-13.41 1.17-7.1 24.97 6.47 26.8 7.47 11.68 6.34 23.14 14.81 35.13 20.78 4.03 2.01 7.15 1.26 10.86 1.81 4.94.72 10.09 4.11 15.1 5.28 3.99.94 14.43 3.38 12.39-3.57-1.47-5.02-11.02-9.35-15.01-12.39-4.52-3.44-8.72-7.15-13.61-10.06-1.05-.63-3.37-1.41-4.14-2.28-2.13-2.4-.72-6.05-3.29-8.74 2.69 2.58 5.35 3.92 9 3.96.95.01 2.79-1.01 3.99-1.16 3.61-.45 7.86.76 11.48 1.17 5.08.57 30.67-.16 17.49-9.13-5.64-3.84-11.97-6.75-18.25-9.32-4.93-2.02-11.39-3.51-15.55-6.9-4.3-3.52-5.09-5.34-11.36-6.27-6.43-.95-15.51-.76-20.57-5.41-10.3-9.46 24.02-3.11 27.67-2.18 7.37 1.86 15.34 3.32 22.88 1.65 8.4-1.85 15.36-5.84 24.2-6.24 3.94-.18 16.85.22 16.63-6.11-.22-6.23-14.67-6.65-18.5-7.42-3.96-.79-8.46-1.06-12.26-2.22-3.46-1.05-6.09-3.28-9.46-4.58-9.54-3.69-17.64 1.02-27.15.57-5.03-.23-7.42-2.21-2.17-5.79 2.83-1.94 7.38-2.12 10.72-3.06 5.02-1.41 9.96-3.21 14.92-4.84 6.69-2.2 44.26-13.98 34.89-25.98Z" fill="#89B99A" fill-rule="evenodd"/></svg>