
<svg width="545.8" height="591.196" fill="none" xmlns="http://www.w3.org/2000/svg"><path d="M227.58 361.18c-1.12 1.86-.39 4.87-.1 6.86-.26-4.88 3.1-10.38 4.91-14.73 1.76-4.23 3.23-8.6 4.27-13.07.03-.1 2.23-10.08-1.01-8.18-9.02 5.25-3.2 21.78-8.07 29.12Zm-3.88-75.65c2.74 3.61 16.55 20.56 21.56 14.96 3.98-4.45-4.21-15.13-7.65-17.52-5.71-3.98-11.84-7.23-17.32-11.59.61 5.1.11 9.85 3.41 14.15Zm145.65 2.88c4.42-.66 8.84-1.35 13.2-2.33-5.06.75-10.05 1.36-15.01 2.62l1.82-.29h-.01Zm-233.81 81.25c-.92-2.33 4.23-6.28 5.44-7.57 3.32-3.53 6.74-7.45 7.33-12.13 1.08-3.66-7.5-1.76-10.09-2.19-1.82-.31-6.27-1.35-7.2-3.22-2-4.02 4.4-6.19 7.2-7.51 4.09-1.92 6.29-2.41 1.94-4.23-4.67-1.95-14.64-1.71-15.76-8.56-.95-5.84 8.84-8.26 12.72-9.16 7.32-1.69 13.84-.63 20.71 2.15 1.6.64 11.31 4.07 10.66 1.67-2.07-5.25-9.1-6.21-11.83-11-1.56-2.73-1.63-5.26-3.61-7.95-1.95-2.65-5.96-6.53-4.11-10.3 1.17-2.39 3.95-2.79 6.05-2.05 5.12 1.4 8.56 4.65 13.08 7.21 3.3 1.87 7.03 1.17 9.93 3.96 4.36 4.31 8.75 9.17 13.58 13.2 1.51 1.26 8.58 6.68 9.03 2.52.26-2.35-6.99-6.36-8.17-7.23-2.81-2.07-5.83-3.79-7.36-7.12-.87-1.92-.43-3.97-1.13-5.46-2.06-4.4-8-7.69-10.64-11.88-2.37-3.75-7.88-13.25-6.28-17.8 2.18-6.22 8.51.35 11.62 2.67 3.44 2.57 6.42 5.17 10.2 6.96 3.34 1.58 5.77 3.32 8.13 6.35 4.35 5.6 7.26 11.88 10.76 17.77-.02-.02-.04-.03-.05-.05 2.1 3.38 5.08 6.93 8.68 8.86 6.04 3.23 4.25-.59 1.3-4.74-4.45-6.27-9.87-11.85-14.33-18.09-1.59-2.22-3.1-4.65-3.33-7.47-.16-1.88 1.04-3.39 1.08-4.76.15-4.77-14.44-31.24-4.47-32.86 5.38-.87 8.68 11.14 10.45 14.3 2.83 5.06 4.23 9.47 9.5 12.24-.5-2.26 1.4-3.85 1.11-5.82-.34-2.34-2.8-4.39-4.13-6.18-3.67-4.92-7.06-10.16-9.38-15.83-7.09-17.33 11.36-4.23 17.2.52 1.12.91 2.57 2.05 3.85 3.07 3.38 2.67 4.48 2.16 8.04 3.55 6.05 2.37 9.49 13.19 11.45 18.9.61 1.76 10.98 29.49 14.96 22.36 2.01-3.59-4.52-15.5-6.63-18.97-3.25-5.35-11.7-12.69-11.05-19.42.21-2.12 1.83-3.01 2.13-4.9.7-4.43-3.47-10.18-4.57-14.33-2.22-8.44 2.36-14.49 8.42-4.95 2.39 3.77 4.17 5.99 7.27 9.27 3.54 3.74 3.45 8.89 6.14 12.87 2.22 3.28 1.91.03 5.51 2.33 2.98 1.91 3.52 8.61 3.9 11.84.52 4.48.18 23.09 6.55 23.17 5.82.07 4.08-11.93 3.37-15.28-1.76-8.38-7.21-14.52-11.85-21.38-2.26-3.35-5.07-7.31-6.17-11.25-.96-3.46.17-6.07.58-9.4.49-3.88 1.38-21.71 9.65-15.99 5.55 3.85 3.58 13.61 8.52 17.89.54-4.6-2.33-16.57 4.11-18.63 6.21-1.98 9.38 11.1 10.93 15.43.96 2.66 3.09 18.28 6.35 19.96 3.41 1.76 4.49-2.76 5.35-5.22 1.48-4.22 13.14-42.92 19.93-38.71 5.27 3.27-4.22 15.2-2.18 18.66.74 1.27 2.08.25 3.41.71 4.86 1.7 5.74 4.17 3.52 9.02 12.95 1.79-1.05 12.91-5.56 16.77-3.08 2.62-16.47 13.61-10.02 18.72 2.17 1.72 8.22-.04 10.93.65 5.22 1.32 6.01 6.21 1.97 9.63-2.79 2.34-6.99 3.49-10.54 3.96-2.04.27-7.75-.51-9.15 1.13 7.65 4.26 1.15 6.37-4.46 8.47-4.2 1.58-15.21 5.17-15.22 11.18 6.91-.64 13.59-3.14 20.42-4.25 7.48-1.23 14.73-2.81 22.31-4.84 14.38-3.84 29.58-7.23 44.26-9.41 7.18-1.07 14.32-2.6 21.43-4.1 2.56-.54 15.66-5.69 16.71-.56 1.42 6.95-18.72 5.67-22.42 7.85-26.54 5.06-52.8 11.66-79.4 16.06 2.37.57 7.64 4.59 5.74 7.57 2.08.26 5.86-.41 7.45 1.21 3.53 3.57-1.24 3.04-1.92 4.76-1.16 2.93 4.97 3.57 7.23 4.24 10.54 3.1 20.82 8.58 30.61 13.55 5.37 2.73 17.13 15.54 6.64 19.29-5.23 1.86-13.12-2.28-17.55-4.58-2.79-1.45-9.57-7.12-13.03-6.62-.19 4.08 4.99 12.18 6.46 15.74 3.1 7.53 4.48 13.33.62 20.96-9.17 18.11-16.47-14.69-19.04-13.37-1.81.93.76 16.23.99 18.18.51 4.34.68 16.74-5.96 17.34-5.57.5-7.87-10.55-9.13-14.16-1.05-3.04-3.16-6.08-3.96-9.57-.66-2.87-.2-5.93-.79-8.73-.61-2.92-3.04-4.5-3.77-7.79-.83-3.68-.78-8-1.27-11.81-.81-6.36-1.56-15.13-7.4-19.27-4.66 10.69 2.16 23.9 4.43 34.42 1.14 5.26 2.82 11.65-1.17 15.95-1.6 1.72-.73-.62-2.48 1.92-.39.57-.52 1.58-.73 2.24-1.47 4.7-2.3 9.55-3.64 14.28-.84 2.94-2.68 12.84-6.47 13.68-6.87 1.52-7.46-22.89-8.06-27.49-.46-3.49-.36-7.3-.97-10.7-.55-3.11-2.51-5.2-2.18-8.76.43-4.59 2.32-9.12 3.27-13.62 1.27-6.06 1.24-11.74.5-17.84-.31-2.53-.69-8.45-3.65-8.96-4.75-.83-3.7 8.73-3.74 11.23-.14 7.41 1.81 15.58-.18 23.67-2.05 8.37 2.77 16.14 2.02 24.53-.27 3.03-.95 4.42-2.88 6.64-2.14 2.48-3.24 3.6-4.34 7.35-.99 3.39-4.79 20.37-10.78 15.37-1.95-1.62-.99-5.27-.93-7.37.12-4.64-.02-9.29.21-13.92.15-2.95 1.03-6.28.28-9.2-.7-2.76-2.23-4.19-1.88-7.37.48-4.27 3.72-9.2 3.41-13.37-.29-3.98-1.79-7.87-1.69-12.17.08-3.42 3.3-21.16.67-22.18-5.37-2.08-5.72 19.84-5.78 21.5-.39 10.63.77 21.97.01 32.66-.26 3.59-2.05 5.44-3.19 8.23-1.51 3.69-1.27 8.62-2.5 12.54-.99 3.14-3.56 11.32-7.51 7.1-2.86-3.06-1.95-11.4-2.42-15.39-.52-4.5-1.37-8.91-1.38-13.46 0-.98.4-2.9.12-3.78-.78-2.45-3.87-2.96-4.69-5.82.69 2.91.53 5.28-.93 7.81-.38.66-1.83 1.52-2.42 2.28-1.78 2.31-2.68 5.73-3.87 8.39-1.68 3.73-12.6 21.08-13.41 8.35-.35-5.45.23-11 1.02-16.37.61-4.22 2.22-9.28 1.58-13.52-.67-4.4-1.6-5.68.31-10.37 1.96-4.83 5.79-11.01 4.65-16.38-2.31-10.95-11.92 15.29-12.77 18.18-1.72 5.84-3.96 11.92-8.17 16.44-4.7 5.04-10.28 8.22-14.16 14.15-1.73 2.64-6.71 11.71-10.97 8.98-4.2-2.68 1.39-12.81 2.42-15.76 1.07-3.05 2.72-6.27 3.47-9.36.68-2.81.22-5.53.69-8.38 1.35-8.07 7.89-11.75 11.46-18.48 1.88-3.56 1.5-6.01-3.11-3.85-2.49 1.16-4.46 4.22-6.47 6.14-3.02 2.89-6.27 5.57-9.41 8.33-4.24 3.71-27.64 24.82-32.09 13.49Z" fill="#89B99A" fill-rule="evenodd"/><path d="M414.91 431.17c-17.64-31-41.31-59.71-64.07-87.06 6.72 1.85 15.6.41 21.73-2.64 6.89-3.43 10.38-9.39 13.17-16.28.39-.98 2.98-11.05 4.87-10.51 3.48 1.01 4.49 23.21 4.86 25.93 1.34 9.69 3.41 19.18 5.58 28.72 4.68 20.55 9.77 41.16 13.86 61.84Zm-75.35-105.24c-4.92.34-8.63-6.62-11.81-10.21 5.32-.21 27.98-6.48 30.69-1.06 4.41 8.8-14.39 10.94-18.88 11.27ZM228.95 158.11c-.02 2.93-.03 14.27-4.61 10.75-3.1-2.38-4.79-13.04-5.75-16.31-1.96-6.66-4.97-14.87-4.63-21.9.66-13.3 9.38-4.22 11.37 2.87 2.2 7.83 3.65 16.43 3.62 24.59Zm35 58.29c5.79-3.63 3.47 3.14 1.29 6.37-6.12 9.08-7.47-1.44-1.29-6.37Zm-13.04-31.12c-1.22-6.6-.61-15.56 1.27-21.87 1.48-4.96 6.22-9.58 9.12-3.24 2.41 5.26-2.15 19.08-4.58 24.25-1.98 4.21-4.7 7.78-5.81.86Zm-25.15 2.02c1.09 12.67-9.94 17.31-9.58 2.84.22-8.85 7.65-15.38 9.58-2.84Zm23.32 76.35c.34 5.25-10.71 23.64-11.5 13.49-.23-2.89 10.91-18.23 11.5-13.49Zm-32.39-17.73c-3.78 2.45-14.17 10.63-18.09 8.98-6.28-2.65.89-10.07 3.68-11.98 3.04-2.09 11.4-7.2 15.6-6.56 7.7 1.18 2.7 6.79-1.19 9.56Zm-56.76-75.75c-9.37 3.99-12.67-7.17-14.69-13.83-1.32-4.36-6-13.48-1.09-16.59 8.83-5.6 18.68 23.19 15.78 30.42Zm31.07 1.31c-1.43-4.47-2.55-9.04-3.95-13.52-.83-2.66-5.2-12.04-4.67-14.27 1.66-7.08 7.38-3.55 10.7 1.64 3.41 5.33 6.97 16.43 6.61 22.54-.33 5.67-5.62 12.26-8.69 3.61Zm-17.29-47.03c-2.46-7.78 2.86-14.32 8.96-5.65 6.9 9.8-3.59 20.17-8.96 5.65Zm13.49 137.51c.36 7.12-23.76 17.84-29.21 14.57-7.18-4.32 7.56-9.69 11.66-11.82 3.46-1.79 16.54-10.9 17.55-2.75Zm-42.75-10.6c-6.12 1.72-12.4 4.11-18.69 4.98-8.65 1.18-8.58-3.67-2.11-8.77 5.66-4.46 16.23-5.53 22.98-8.23 5.39-2.16 21.03-14.51 24.93-10.68 8.79 8.61-21.33 21.01-27.11 22.7Zm1.63 27.73c.25 9.67-25.37 12.91-31.09 13.47 3.84-2.73 29.34-26.81 31.09-13.47Zm-48.47-48.77c-17.36-.58.08-13.22 5.93-15.55 4.25-1.7 14.24-5.47 18.56-1.91 11.34 9.32-20.02 17.63-24.49 17.46Zm1.97-35.35c.4-6 29.29-15.03 30.92-9.54 1.29 4.32-29.53 22.12-30.92 9.54Zm41.56 7.23c11.46-7.85 26.98-.47 9.8 8.64-3.38 1.78-12.2 6.6-15.94 3.85-5.28-3.88 3.11-10.53 6.14-12.49Zm316.17 26.4c-2.84-5.03-6.93-12.05-11.64-7.31-1.83 1.84-3.71 9.53-4.95 12.41-4.34 10.1-8.94 21.38-18.08 28.15-5.47 4.04-24.53 10.58-19.75-1.78 4.08-10.54 17.59-19.87 25.73-27.52 3.78-3.54 12.74-10.82 14.71-15.97 1.5-3.92-2.11-13.15-8.58-11.06-2.94.94-3.32 9.53-4.39 11.97-1.7 3.86-4.7 6.89-7.35 10.1-4.2 5.08-8.64 12.54-15.24 14.94-7.92 2.88-10.37-1.76-6.3-8.88 3.99-6.95 13-11.43 18.51-17.14 2.74-2.84 11.37-11.15 9.27-15.4-4.56-9.25-10.94 4.28-13.21 7.03-1.77 2.15-12.56 16.04-15.93 13.39-4.05-3.19 5.02-16.03 6.69-18.77 3.52-5.79 5.05-5.47.6-8.56-2.55-1.77-7.85-3.29-10.67-2.89-6.91.98-13.97 7.36-21.09 9.05-2.95.7-12.99.54-14.21 5.06-1.87 6.94 28.33 23.59 12.42 27.37-12.3 2.93-23.86-16.12-33.97-8.28-15.98 12.38 9.39 19.92 19.14 22.49 4.37 1.15 18.76 1.65 16.66 9.38-1.71 6.28-13.65 4.9-18.25 4.12-8.71-1.45-16.6-5.67-24.75-8.81-2.2-.84-11.03-5.64-13.69-4.6-3.79 1.48-8.39 16.3-6.18 19.8 2.73 4.3 17.7 2.8 22.77 2.91 8.56.18 19.05-.13 26.34 5.2 8.05 5.89-1.9 6.81-7.4 6.57-11.87-.52-23.98-4.72-35.61-6.99-4.06-.8-10.09-2.96-14.13-2.4-6.1.84-4.81 1.26-2.3 6.25 5.59 11.12 11.27 12.37 23.65 13.24 5.65.39 30.36-2.86 32.3 4.67-6.07 4.78-20.79 2.17-27.96 2.07-5.24-.08-13.74 1.13-18.29-1.41-6.21-3.46-14.06-16.35-18.61-21.52-8.06-9.18-16.01-18.31-24.84-26.8 9.64 1.37 18.66 4.42 28.43 2.01 10.67-2.64 20.9-9.77 22.47-21.24.58-4.2-.12-8.5-.42-12.69-.1-1.34-.03-2.71-.19-4.04-.7-5.8-.22-7.69-4.2-3.49-4.54 4.77-7.68 15.64-15.48 17.66-8.63 2.24-4-4.22-.49-8 8.66-9.32 18.14-17.44 19.57-31.24.78-7.53.35-15.8-1.01-23.31-1.31-7.22-2.62-7-5.06-1.08-5.29 12.82-13.55 23.39-24.52 31.96-2.1 1.65-6.82 5.67-10 3.4-2.87-2.06-.78-5.96 0-8.91 1.72-6.5 4.2-12.54 6.65-18.79 3.22-8.24 8.82-19.36 9.05-28.23.15-5.76-4.52-8.24-8.64-11.85-4.82-4.22-9.15-8.73-12.89-13.95-2.61-3.63-5.42-9.09-9.34-11.48-6.09-3.71-4.73.92-4.27 5.55.37 3.7 5.72 40.23-2.95 38.36-8.6-1.87-4.98-36.25-6.17-43.79-1.59-10-15.47-8.64-23.87-10.47-4.43-.96-8.49-1.47-12.69-3.1-1.59-.62-3.4-3.32-5.18-2.51-4.06 1.85 12.31 16.88 8.05 22.21-7.18 9-14.43-14.76-16.48-19.1-1.73-3.64-3.79-7.91-6.22-11.08-3.74-4.89-4.25-3.71-9.76-2.07-5.51 1.64-18.67 1.5-22.83 5.14-4.02 3.53 1.11 6.11 3.9 9.32 2.64 3.03 11.2 13.32 3.99 15.45-2.61.77-12.06-6.92-14.51-8.5-5.2-3.36-4.08-2.6-8.44-1.5-5.07 1.28-10.78 2.92-15.66 4.65-6.12 2.17-7.57 3.19-2.99 7.58 5.38 5.13 13.43 8.23 16.08 15.57 1.29 3.18.44 6.72-3.57 6.79-4.27.07-6.22-5.77-7.86-8.9-2.09-3.95-6-13.26-11.07-14.1-3.18-.52-7.09 3.31-9.77 4.7-1.59.83-8.74 2.96-9.31 5.17-.64 2.42 7.61 7.67 9.85 10.25 5.7 6.59 11.77 14.74 13.93 22.67 1.66 12.94-13.33-2.79-15.69-6.72-2.62-4.35-11.04-26.86-18.57-24.58-2.05.62-3.32 5.62-5 7.25-2.05 2.01-4.69 2.81-7.16 4.06-3.66 1.84-7.32 3.69-10.83 5.77-1.08.65-4.03 2.52-4.62 2.94-.44.33-1.42.11-1.96.52-3.66 2.76-5.38 8.35-8.72 11.71-1.5 1.51-8.18 5.62-7.69 7.76.45 1.94 32.23 3.47 36.99 4 3.62.4 18.82-.24 20.68 3.3 1.81 3.46-1.26 4.68-4.25 5.82-7.42 2.85-16.77 3.52-24.58 4.92-5.51.98-28.1 2.39-31.03 7.87-3.02 5.66.65 9.54 4.87 10.31 4.61.86 11.28-1.09 15.79-1.74 3.67-.53 27.12-6.34 28.32-.94 1.31 5.88-26.72 10.82-29.49 11.57-5.31 1.42-14.25 1.68-18.93 4.4-4.2 2.45-2.63 2.73-1.47 6.75 4.03 13.88 5.46 11.17 17.73 8.05 4.7-1.2 10.74-3.33 15.22-.75 5.36 3.07 5.06 6.92.27 9.57-3.29 1.82-10.16 2.25-13.85 2.79-4.3.63-8.67.85-13.02.9-1.28.01-6.87-.92-8.09-.09-4.79 3.23 6.79 20.05 11.79 20.71 2.42.31 6.36-1.34 8.77-1.81 8.42-1.64 16.98-2.5 25.42-4.06 4.76-.88 27.03-7.39 23.04 4.15-2.21 6.37-18.32 9.58-23.66 11.4a239.93 239.93 0 0 1-15.55 4.71c-4.9 1.3-7.76.76-4.49 6.19 3.33 5.52 23.13 22.37 29.35 21.84 5.1-.44 3.2-2.8 8.93.6 2.1 1.26 4.23 3.32 6.05 4.94 7 6.21 14.2 15.18 23.97 16.92 20.88 3.72 49.41-24.23 62.89-37.21 2.68-2.58 12.92-15.23 17.91-12.4 5.23 2.97-3.85 14.78-5.66 17.05-10.06 12.64-22.59 24.77-37.48 31.34-3.97 1.75-15.08 3.43-18.84 6.53-3.73 3.06.08 4.05 4.04 6.65 8.44 5.56 19.72 13.75 30.09 10.35 13.66-4.49 20.99-18.81 28.63-30.05 4.23-6.24 24.09-35.7 24.35-12.6.13 11.5-7.16 24.66-15 32.57-1.46 1.48-10.94 6.2-10.74 7.32.31 1.7 5.98 2.43 7.02 2.66 10.05 2.16 40.24 5.11 44.48-7.84 2.9-8.88-.64-23.07-1.88-32-.39-2.77-2.34-7.23 1.65-8.11 5.11-1.13 9.48 16.71 9.87 19.54.78 5.81-.09 11.86-2.29 17.86-.97 2.63-3.63 4.99-.16 5.4 1.25.15 8.27-6.54 9.37-7.65 5.6-5.7 5.98-12.12 5.53-19.68-1.25-20.39-10.73-40.27-21.77-57.23 13.19 13.68 25.78 27.85 37.96 42.44 3.05 3.65 5.19 8.11 8.19 11.63 4.33 5.08 9.67 9.2 14.18 14.62-1.33-.13-12.82-3.23-13.16-.1-.3 2.85 9.45 7.26 11.44 8.32 8.99 4.76 12.53 5.17 19.6 13.79 17.58 21.46 33.65 43.7 49.38 66.53 7.69 11.15 15.79 22.14 22.57 33.89 3.39 5.89 6.12 12.18 8.7 18.46 1.78 4.32 4.01 17.37 9.55 18.75 6.44 1.62 4.86-5.47 3.55-8.81-2.94-7.53-5.09-14.86-7.19-22.71-3.41-12.78-5.98-25.77-9.71-38.48-4.66-15.85-8.49-31.84-12.33-47.9-2.49-10.43-4.63-21.03-6.24-31.64-1.1-7.28-.82-15.08-2.77-22.22 7.6 6.86 6.12 19.25 18.83 20.14 9.82.68 16.91-7.24 22.53-14.24 4.58-5.7 11.16-14.32 12.05-21.81 1.06-8.94-6.43-2.55-12.01-.61-3.61 1.25-13.54 6.97-16.51 3.55-4.15-4.77 10.65-10.98 13.51-12.8 6.3-3.99 13.28-8.85 18.07-14.71 1.89-2.31 9.74-27.45 1.04-24.03-1.11.43-2.65 3.94-3.54 5.18-4.13 5.73-8.82 10.9-13.88 15.81-5.52 5.35-17.57 17.94-26.78 15.22 3.73-11.3 19.35-17.18 27.79-24.59 5.43-4.75 10.13-10.01 13.35-16.53 1.61-3.24 5.68-12.33 3.73-15.78Z" fill="#02362C" fill-rule="evenodd"/></svg>